<svg width="22" height="22" viewBox="0 0 22 22" fill="none" xmlns="http://www.w3.org/2000/svg">
<path d="M21.723 2.91331C20.9233 3.34219 20.075 3.62361 19.2063 3.74804C20.1212 3.08537 20.8059 2.04254 21.1328 0.813959C20.2728 1.43199 19.3316 1.86719 18.3503 2.1007C17.9403 1.5713 17.4448 1.14948 16.8946 0.861369C16.3444 0.57325 15.7511 0.424995 15.1516 0.425784C12.7317 0.425784 10.7695 2.80049 10.7695 5.73056C10.7695 6.14593 10.8083 6.55125 10.8832 6.93978C7.24106 6.7185 4.01218 4.60639 1.85075 1.39655C1.46103 2.20616 1.25625 3.12669 1.25741 4.06368C1.25684 4.9371 1.43449 5.79717 1.77459 6.5674C2.11469 7.33775 2.60671 7.99433 3.20692 8.47902C2.51113 8.45228 1.83069 8.22475 1.22218 7.81555C1.22163 7.83767 1.22163 7.85944 1.22163 7.88236C1.22163 10.4517 2.73202 12.5958 4.73643 13.0837C4.09103 13.2952 3.41432 13.3262 2.75754 13.1744C3.3151 15.2814 4.9334 16.8157 6.85099 16.8587C5.29869 18.3333 3.38181 19.1332 1.40859 19.1296C1.05491 19.1296 0.706233 19.1048 0.363098 19.0554C2.36679 20.6138 4.6988 21.4411 7.08041 21.4382C15.1409 21.4382 19.5486 13.3553 19.5486 6.34607C19.5486 6.11646 19.5442 5.88702 19.5359 5.65905C20.3942 4.90887 21.135 3.97901 21.723 2.91331Z" fill="black"/>
</svg>
